<svg version="1.2" xmlns="http://www.w3.org/2000/svg" viewBox="0 0 256 255" width="256" height="255">
	<title>pythonLogo-svg</title>
	<defs>
		<linearGradient id="g1" x1="4648" y1="4337.2" x2="28563.2" y2="28172.5" gradientUnits="userSpaceOnUse">
			<stop offset="0" stop-color="#387eb8"/>
			<stop offset="1" stop-color="#366994"/>
		</linearGradient>
		<linearGradient id="g2" x1="6926.5" y1="7478" x2="32611.4" y2="31921.5" gradientUnits="userSpaceOnUse">
			<stop offset="0" stop-color="#ffe052"/>
			<stop offset="1" stop-color="#ffc331"/>
		</linearGradient>
	</defs>
	<style>
		.s0 { fill: url(#g1) } 
		.s1 { fill: url(#g2) } 
	</style>
	<path id="python2" fill-rule="evenodd" class="s0" d="m189.4 34v56c0 33.9-34.4 33.3-34.4 33.3h-61.4c-36.8 0-35.6 36.2-35.6 36.2v30.4h-21.6c0 0-36.3 2.3-36.3-63.1 0-65.4 41.5-60.7 41.5-60.7h86.5v-8.8h-61.9l-0.1-29.1c0 0-4-28.1 60.8-28.1 67.8 0 62.5 33.9 62.5 33.9zm-100.9-13.5c-1.3 0.6-2.5 1.4-3.6 2.4-1 1.1-1.8 2.3-2.4 3.6-0.5 1.4-0.8 2.8-0.8 4.3 0 1.5 0.3 2.9 0.8 4.3 0.6 1.3 1.4 2.5 2.4 3.6 1.1 1 2.3 1.8 3.6 2.4 1.4 0.5 2.8 0.8 4.3 0.8 1.5 0 2.9-0.3 4.3-0.8 1.3-0.6 2.5-1.4 3.6-2.4 1-1.1 1.8-2.3 2.4-3.6 0.5-1.4 0.8-2.8 0.8-4.3 0-1.5-0.3-2.9-0.8-4.3-0.6-1.3-1.4-2.5-2.4-3.6-1.1-1-2.3-1.8-3.6-2.4-1.4-0.6-2.8-0.8-4.3-0.8-1.5 0-2.9 0.2-4.3 0.8z"/>
	<path id="python1" fill-rule="evenodd" class="s1" d="m66.2 220.2v-56c0-33.9 34.5-33.3 34.5-33.3h61.4c36.8 0 35.6-36.2 35.6-36.2v-30.4h21.6c0 0 36.2-2.3 36.2 63.1 0 65.4-41.5 60.7-41.5 60.7h-86.4v8.8h61.9v29.1c0 0 4.1 28.1-60.7 28.1-67.8 0-62.6-33.9-62.6-33.9zm100.9 13.5c1.4-0.6 2.6-1.4 3.6-2.4 1.1-1.1 1.9-2.3 2.5-3.6 0.5-1.4 0.8-2.8 0.8-4.3 0-1.5-0.3-2.9-0.8-4.3-0.6-1.3-1.4-2.5-2.5-3.6-1-1-2.2-1.8-3.6-2.4-1.3-0.5-2.8-0.8-4.2-0.8-1.5 0-2.9 0.3-4.3 0.8-1.3 0.6-2.6 1.4-3.6 2.4-1 1.1-1.9 2.3-2.4 3.6-0.6 1.4-0.9 2.8-0.9 4.3 0 1.5 0.3 2.9 0.9 4.3 0.5 1.3 1.4 2.5 2.4 3.6 1 1 2.3 1.8 3.6 2.4 1.4 0.6 2.8 0.8 4.3 0.8 1.4 0 2.9-0.2 4.2-0.8z"/>
</svg>